<svg width="21" height="21" viewBox="0 0 21 21" fill="none" xmlns="http://www.w3.org/2000/svg">
<g id="cart">
<path id="Vector" d="M6.89002 7.03843V5.65384C6.89002 4.55218 7.31144 3.49563 8.06156 2.71663C8.81175 1.93764 9.82913 1.5 10.89 1.5C11.9509 1.5 12.9683 1.93764 13.7184 2.71663C14.4686 3.49563 14.89 4.55218 14.89 5.65384V7.03843M3.55668 7.03843C3.37987 7.03843 3.2103 7.11143 3.08528 7.24124C2.96025 7.37106 2.89001 7.54718 2.89001 7.73074V17.0769C2.89001 18.3854 3.96335 19.5 5.22335 19.5H16.5567C17.8167 19.5 18.89 18.4395 18.89 17.131V7.73074C18.89 7.54718 18.8198 7.37106 18.6948 7.24124C18.5698 7.11143 18.4002 7.03843 18.2234 7.03843H3.55668Z" stroke="black" stroke-width="0.8125" stroke-linecap="round" stroke-linejoin="round"/>
<path id="Vector_2" d="M6.89001 9.16797V9.83466C6.89001 10.8955 7.31141 11.9129 8.0616 12.663C8.81173 13.4132 9.82917 13.8347 10.89 13.8347C11.9509 13.8347 12.9683 13.4132 13.7184 12.663C14.4686 11.9129 14.89 10.8955 14.89 9.83466V9.16797" stroke="black" stroke-width="0.8125" stroke-linecap="round" stroke-linejoin="round"/>
</g>
</svg>
