<svg width="101" height="102" viewBox="0 0 101 102" fill="none" xmlns="http://www.w3.org/2000/svg">
<g id="Frame">
<path id="Rectangle 3" d="M2.49609 38.1164H98.8711C98.8711 45.2318 93.1029 51 85.9875 51H15.3797C8.26428 51 2.49609 45.2318 2.49609 38.1164Z" fill="#FFDDDB"/>
<g id="Group">
<path id="Vector" d="M80.5742 13.2092H20.4284C9.16863 13.2092 0.0078125 22.37 0.0078125 33.6298C0.0078125 44.8895 9.16863 54.0503 20.4284 54.0503H80.5742C91.834 54.0503 100.995 44.8895 100.995 33.6298C100.995 22.37 91.8338 13.2092 80.5742 13.2092ZM80.5742 50.8945H20.4284C10.9085 50.8945 3.16367 43.1496 3.16367 33.6298C3.16367 24.1099 10.9085 16.3651 20.4284 16.3651H80.5742C90.0941 16.3651 97.8389 24.1099 97.8389 33.6298C97.8389 43.1496 90.0941 50.8945 80.5742 50.8945Z" fill="black"/>
<path id="Vector_2" d="M22.4531 25.3766C17.902 25.3766 14.1991 29.0787 14.1991 33.6298C14.1991 38.1809 17.902 41.8838 22.4531 41.8838C27.0042 41.8838 30.7071 38.1809 30.7071 33.6298C30.7071 29.0787 27.0044 25.3766 22.4531 25.3766ZM22.4531 38.7279C19.6417 38.7279 17.355 36.4412 17.355 33.6298C17.355 30.8192 19.6417 28.5325 22.4531 28.5325C25.2645 28.5325 27.5512 30.8192 27.5512 33.6298C27.5514 36.4412 25.2645 38.7279 22.4531 38.7279ZM44.6512 30.2921C44.6512 27.5816 42.4462 25.3764 39.7355 25.3764H35.1783C34.7598 25.3765 34.3585 25.5427 34.0626 25.8386C33.7667 26.1345 33.6004 26.5359 33.6004 26.9543V40.3059C33.6069 40.72 33.776 41.115 34.0713 41.4056C34.3665 41.6962 34.7641 41.859 35.1783 41.859C35.5925 41.859 35.9901 41.6962 36.2853 41.4056C36.5805 41.115 36.7497 40.72 36.7562 40.3059V35.2077H38.76L41.6618 41.0117C42.0556 41.7994 43.0088 42.1026 43.7791 41.7175C43.9645 41.6248 44.1298 41.4966 44.2656 41.34C44.4014 41.1835 44.505 41.0017 44.5706 40.8051C44.6361 40.6085 44.6623 40.4009 44.6476 40.1941C44.6329 39.9874 44.5776 39.7856 44.4849 39.6002L41.9997 34.6293C43.5674 33.8069 44.6512 32.1821 44.6512 30.2921ZM36.7562 28.5325H39.7357C40.7057 28.5325 41.4955 29.3221 41.4955 30.2923C41.4955 31.2624 40.7059 32.0521 39.7357 32.0521H36.7562V28.5325ZM86.8035 30.2921C86.8035 27.5816 84.5985 25.3764 81.887 25.3764H77.3298C76.9113 25.3765 76.51 25.5427 76.2141 25.8386C75.9182 26.1345 75.7519 26.5359 75.7519 26.9543V40.3059C75.7584 40.72 75.9276 41.115 76.2228 41.4056C76.518 41.6962 76.9156 41.859 77.3298 41.859C77.744 41.859 78.1417 41.6962 78.4369 41.4056C78.7321 41.115 78.9012 40.72 78.9077 40.3059V35.2077H80.9118L83.8139 41.0117C84.2077 41.7994 85.1609 42.1026 85.9312 41.7175C86.1166 41.6248 86.2819 41.4966 86.4177 41.34C86.5535 41.1835 86.6571 41.0017 86.7227 40.8051C86.7882 40.6085 86.8144 40.4009 86.7997 40.1941C86.785 39.9874 86.7297 39.7856 86.637 39.6002L84.1515 34.6295C85.7197 33.8069 86.8035 32.1821 86.8035 30.2921ZM78.9077 28.5325H81.887C82.8578 28.5325 83.6476 29.3221 83.6476 30.2923C83.6476 31.2624 82.858 32.0521 81.887 32.0521H78.9077V28.5325ZM52.3844 25.3766H49.9535C49.535 25.3767 49.1337 25.5429 48.8378 25.8388C48.5419 26.1347 48.3756 26.5361 48.3756 26.9545V40.3061C48.3756 40.7245 48.5419 41.1259 48.8378 41.4218C49.1337 41.7177 49.535 41.8839 49.9535 41.884H52.3844C56.9355 41.884 60.6384 38.1811 60.6384 33.63C60.6384 29.0789 56.9355 25.3766 52.3844 25.3766ZM52.3844 38.7279H51.5314V28.5323H52.3844C55.1958 28.5323 57.4825 30.819 57.4825 33.6296C57.4825 36.4412 55.1958 38.7279 52.3844 38.7279ZM71.3254 28.5325C71.7396 28.5259 72.1346 28.3568 72.4252 28.0616C72.7158 27.7664 72.8786 27.3688 72.8786 26.9545C72.8786 26.5403 72.7158 26.1427 72.4252 25.8475C72.1346 25.5523 71.7396 25.3832 71.3254 25.3766H65.0646C64.6462 25.3767 64.2448 25.5429 63.9489 25.8388C63.653 26.1347 63.4868 26.5361 63.4867 26.9545V40.3061C63.4868 40.7245 63.653 41.1259 63.9489 41.4218C64.2448 41.7177 64.6462 41.8839 65.0646 41.884H71.3254C71.7396 41.8774 72.1346 41.7083 72.4252 41.4131C72.7158 41.1179 72.8786 40.7203 72.8786 40.3061C72.8786 39.8918 72.7158 39.4942 72.4252 39.199C72.1346 38.9038 71.7396 38.7347 71.3254 38.7281H66.6426V35.2079H71.3254C71.7396 35.2014 72.1346 35.0322 72.4252 34.737C72.7158 34.4418 72.8786 34.0442 72.8786 33.63C72.8786 33.2158 72.7158 32.8182 72.4252 32.523C72.1346 32.2277 71.7396 32.0586 71.3254 32.0521H66.6426V28.5327H71.3254V28.5325ZM80.1304 76.467L81.7277 74.8692C82.5998 73.9978 82.8834 72.7357 82.4688 71.5754C82.0543 70.4143 81.0343 69.617 79.8069 69.4951L68.931 68.418C66.9625 68.2132 65.2824 69.8795 65.4771 71.8658L66.5388 82.7363C66.7966 85.3868 70.0237 86.5491 71.9129 84.6616L73.5062 83.0683L78.3055 87.8684C79.5386 89.0999 81.5424 89.0964 82.7696 87.8676L84.9184 85.7188C86.1496 84.4884 86.1496 82.4852 84.9184 81.2547L80.1304 76.467ZM80.5358 85.6365L74.6218 79.7217C74.4752 79.5752 74.3013 79.459 74.1099 79.3797C73.9185 79.3004 73.7133 79.2596 73.5061 79.2596C73.2989 79.2596 73.0938 79.3004 72.9023 79.3797C72.7109 79.459 72.537 79.5752 72.3905 79.7217L69.6793 82.43L68.6192 71.5587L79.5051 72.628C79.5051 72.628 79.5027 72.6312 79.4966 72.6373V72.6381L76.7838 75.3517C76.6372 75.4981 76.5209 75.6721 76.4416 75.8635C76.3623 76.0549 76.3214 76.2601 76.3214 76.4673C76.3214 76.6745 76.3623 76.8797 76.4416 77.0711C76.5209 77.2626 76.6372 77.4365 76.7838 77.583L82.6872 83.4879L80.5358 85.6365ZM62.841 63.5548C62.2262 62.9383 61.2262 62.9383 60.6098 63.5548C60.4632 63.7013 60.3469 63.8752 60.2676 64.0666C60.1883 64.258 60.1474 64.4632 60.1474 64.6704C60.1474 64.8776 60.1883 65.0828 60.2676 65.2743C60.3469 65.4657 60.4632 65.6396 60.6098 65.7861L62.3773 67.5544C62.9922 68.1706 63.9921 68.1708 64.6086 67.5544C64.7551 67.4079 64.8714 67.234 64.9507 67.0426C65.0301 66.8511 65.0709 66.6459 65.0709 66.4387C65.0709 66.2315 65.0301 66.0263 64.9507 65.8349C64.8714 65.6435 64.7551 65.4696 64.6086 65.3231L62.841 63.5548ZM71.3657 63.8314V61.3312C71.3591 60.917 71.19 60.5221 70.8948 60.2315C70.5996 59.9409 70.202 59.778 69.7878 59.778C69.3735 59.778 68.9759 59.9409 68.6807 60.2315C68.3855 60.5221 68.2164 60.917 68.2098 61.3312V63.8314C68.2164 64.2455 68.3855 64.6405 68.6807 64.9311C68.9759 65.2217 69.3735 65.3845 69.7878 65.3845C70.202 65.3845 70.5996 65.2217 70.8948 64.9311C71.19 64.6405 71.3591 64.2455 71.3657 63.8314ZM60.8858 71.1547H58.3856C57.9714 71.1612 57.5765 71.3303 57.2859 71.6255C56.9953 71.9207 56.8324 72.3184 56.8324 72.7326C56.8324 73.1468 56.9953 73.5444 57.2859 73.8396C57.5765 74.1348 57.9714 74.304 58.3856 74.3105H60.8858C61.2999 74.304 61.6949 74.1348 61.9855 73.8396C62.2761 73.5444 62.4389 73.1468 62.4389 72.7326C62.4389 72.3184 62.2761 71.9207 61.9855 71.6255C61.6949 71.3303 61.2999 71.1612 60.8858 71.1547Z" fill="#FF574A"/>
</g>
</g>
</svg>
