<svg width="101" height="102" viewBox="0 0 101 102" fill="none" xmlns="http://www.w3.org/2000/svg">
<g id="Frame">
<rect id="Rectangle 3" x="5.01562" y="5.93268" width="32.6289" height="31.9734" fill="#FFDDDB"/>
<rect id="Rectangle 4" x="67.0469" y="62.3318" width="12.2852" height="33.485" fill="#FFDDDB"/>
<g id="Group">
<path id="Vector" d="M6.3125 55.7344H42.6094V52.5781H4.73438C4.31583 52.5781 3.91443 52.7444 3.61847 53.0403C3.32252 53.3363 3.15625 53.7377 3.15625 54.1562V92.0312H6.3125V55.7344ZM6.3125 6.8125H42.6094V3.65625H4.73438C4.31583 3.65625 3.91443 3.82252 3.61847 4.11847C3.32252 4.41443 3.15625 4.81583 3.15625 5.23438V43.1094H6.3125V6.8125Z" fill="#FF574A"/>
<path id="Vector_2" d="M96.4518 23.8405L98.7196 22.3286L96.9679 19.7026L94.7017 21.2129C91.7159 23.1885 88.195 24.1989 84.6159 24.1072L80.7211 15.7636C82.153 16.0805 83.6149 16.2424 85.0815 16.2465C89.1293 16.2447 93.0857 15.0425 96.4503 12.792L98.718 11.2817L96.9663 8.65575L94.7001 10.166C92.4037 11.6989 89.7733 12.6589 87.0294 12.9656C84.2855 13.2723 81.5081 12.9168 78.9299 11.9288L76.8863 7.53844C76.5755 6.87349 76.1146 6.28982 75.5397 5.83341C74.9649 5.37701 74.292 5.06036 73.5739 4.90842C72.8558 4.75649 72.1123 4.77341 71.4018 4.95787C70.6914 5.14233 70.0336 5.48927 69.4801 5.97136C66.2677 4.3076 62.6704 3.52878 59.0575 3.71488C55.4446 3.90097 51.9463 5.04527 48.9219 7.03028V3.65625H45.7656V46.2656H3.15625V49.4219H45.7656V95.1875H3.15625V98.3438H47.3438C47.7623 98.3438 48.1637 98.1775 48.4597 97.8815C48.7556 97.5856 48.9219 97.1842 48.9219 96.7656V88.1412L50.4858 87.0996C52.5576 85.7314 54.8976 84.8212 57.3494 84.4298C59.8012 84.0385 62.3083 84.175 64.7031 84.8303V96.7656C64.7031 97.1842 64.8694 97.5856 65.1653 97.8815C65.4613 98.1775 65.8627 98.3438 66.2812 98.3438H78.9062C79.3248 98.3438 79.7262 98.1775 80.0222 97.8815C80.3181 97.5856 80.4844 97.1842 80.4844 96.7656V93.0302C83.2038 93.6576 86.0227 93.7231 88.7684 93.2227C91.514 92.7223 94.1286 91.6666 96.4518 90.1201L98.7196 88.6099L96.9679 85.9839L94.7017 87.4941C92.6299 88.8625 90.2899 89.7727 87.8381 90.1641C85.3863 90.5554 82.8792 90.4189 80.4844 89.7635V81.9833C83.2038 82.6107 86.0227 82.6762 88.7684 82.1758C91.514 81.6755 94.1286 80.6197 96.4518 79.0733L98.7196 77.563L96.9679 74.937L94.7017 76.4473C92.6298 77.8153 90.2898 78.7254 87.838 79.1168C85.3863 79.5081 82.8792 79.3717 80.4844 78.7166V70.9365C83.2038 71.5639 86.0227 71.6294 88.7684 71.129C91.514 70.6286 94.1286 69.5728 96.4518 68.0264L98.7196 66.5161L96.9679 63.8901L94.7017 65.4004C92.6295 66.7678 90.2895 67.6774 87.8378 68.0685C85.3861 68.4595 82.8791 68.3231 80.4844 67.6682V62.0469C80.4844 61.6283 80.3181 61.2269 80.0222 60.931C79.7262 60.635 79.3248 60.4688 78.9062 60.4688H77.3281V58.9064C80.4277 60.1853 83.7953 60.6788 87.1315 60.3429C90.4678 60.007 93.6694 58.8522 96.4518 56.9811L98.7196 55.4692L96.9679 52.8433L94.7017 54.3535C92.1597 56.0548 89.2106 57.0489 86.1574 57.2336C83.1041 57.4183 80.0567 56.787 77.3281 55.4045V51H84.7753C85.8132 51.0006 86.8409 50.7952 87.7988 50.3956C88.7567 49.996 89.6257 49.4102 90.3555 48.6723L90.3603 48.688C92.5282 48.1099 94.5862 47.179 96.4518 45.9326L98.7196 44.4224L96.9679 41.7964L94.7017 43.3066C94.011 43.7639 93.2885 44.171 92.5397 44.525C92.8347 42.9158 92.6201 41.2546 91.9258 39.7732L90.8621 37.4928C92.8469 36.9127 94.7318 36.0336 96.4518 34.8858L98.7196 33.3755L96.9679 30.7495L94.7017 32.2598C93.1112 33.3187 91.3554 34.1054 89.5065 34.5875L86.082 27.2476C89.7822 27.0644 93.3646 25.8868 96.4518 23.8389V23.8405ZM50.4858 9.76991C53.0147 8.079 55.9459 7.08719 58.9819 6.89512C62.0179 6.70304 65.0508 7.31755 67.7726 8.67627L64.6937 15.2728C62.0102 14.6659 59.2324 14.6019 56.5238 15.0846C53.8152 15.5673 51.2305 16.5869 48.9219 18.0835V10.813L50.4858 9.76991ZM67.8515 60.4688C64.7869 59.2103 61.462 58.7167 58.164 59.0307C54.866 59.3447 51.6939 60.4568 48.9219 62.271V55.0005L50.4858 53.959C53.0281 52.2583 55.9771 51.2646 59.0302 51.0799C62.0833 50.8952 65.1306 51.5261 67.8594 52.908V60.4688H67.8515ZM48.9219 66.0474L50.4858 65.0059C52.5517 63.6247 54.8912 62.7053 57.3448 62.3104C59.7983 61.9155 62.3081 62.0544 64.7031 62.7176V70.5135C62.0186 69.9046 59.2393 69.839 56.5291 70.3206C53.8188 70.8022 51.2323 71.8213 48.9219 73.3178V66.0474ZM48.9219 51.2178V43.9537L50.4858 42.9121C51.1765 42.4554 51.899 42.0488 52.6478 41.6954C52.4155 42.9304 52.4863 44.2034 52.854 45.4052C53.2218 46.6069 53.8756 47.7014 54.7594 48.5949C52.6888 49.1598 50.7192 50.0448 48.9219 51.2178ZM54.2196 37.7201C52.3455 38.2799 50.5614 39.1058 48.9219 40.1725V32.9068L50.4858 31.8652C52.8123 30.3142 55.4805 29.3508 58.2612 29.0578L54.2196 37.7201ZM59.7825 25.8005C55.921 25.8596 52.1552 27.012 48.9219 29.124V21.8599L50.4858 20.8184C54.2642 18.3224 58.8648 17.3927 63.316 18.2255L59.7825 25.8005ZM48.9219 84.3647V77.0943L50.4858 76.0527C52.5576 74.6845 54.8976 73.7743 57.3494 73.3829C59.8012 72.9916 62.3083 73.1281 64.7031 73.7834V81.5588C62.0185 80.9495 59.2391 80.8839 56.5287 81.3658C53.8184 81.8477 51.2319 82.8674 48.9219 84.3647ZM77.3281 95.1875H67.8594V63.625H77.3281V95.1875ZM71.0156 60.4688V43.1094C71.0156 42.6908 71.1819 42.2894 71.4778 41.9935C71.7738 41.6975 72.1752 41.5312 72.5938 41.5312C73.0123 41.5312 73.4137 41.6975 73.7097 41.9935C74.0056 42.2894 74.1719 42.6908 74.1719 43.1094V60.4688H71.0156ZM88.768 45.6517C88.3419 46.3248 87.7523 46.8788 87.0541 47.2622C86.3558 47.6455 85.5718 47.8456 84.7753 47.8438H77.3281V43.1094C77.3281 41.8537 76.8293 40.6495 75.9415 39.7617C75.0536 38.8738 73.8494 38.375 72.5938 38.375C71.3381 38.375 70.1339 38.8738 69.246 39.7617C68.3582 40.6495 67.8594 41.8537 67.8594 43.1094V47.8438H60.4122C59.6159 47.8439 58.8324 47.6432 58.1343 47.2602C57.4361 46.8773 56.8458 46.3244 56.418 45.6527C55.9902 44.9811 55.7388 44.2124 55.6869 43.4178C55.6351 42.6231 55.7844 41.8283 56.1213 41.1067L71.164 8.87511C71.291 8.60312 71.4931 8.37302 71.7463 8.21181C71.9996 8.0506 72.2935 7.96497 72.5938 7.96497C72.894 7.96497 73.1879 8.0506 73.4412 8.21181C73.6944 8.37302 73.8965 8.60312 74.0235 8.87511L89.0646 41.1067C89.4033 41.8276 89.5538 42.6226 89.5019 43.4175C89.45 44.2123 89.1975 44.981 88.768 45.6517Z" fill="black"/>
</g>
</g>
</svg>
