<svg width="42" height="39" viewBox="0 0 42 39" fill="none" xmlns="http://www.w3.org/2000/svg">
<g id="Group">
<path id="Vector" d="M30.1087 31.1155C32.376 31.1155 34.214 29.2775 34.214 27.0103C34.214 24.743 32.376 22.905 30.1087 22.905C27.8414 22.905 26.0034 24.743 26.0034 27.0103C26.0034 29.2775 27.8414 31.1155 30.1087 31.1155Z" fill="#FF574A"/>
<path id="Vector_2" d="M41.8723 15.1748V31.3839C41.8723 36.0474 39.5193 38.6194 35.2515 38.6194C34.9477 38.6194 34.6298 38.6052 34.2977 38.584H34.015L13.4674 38.6123C12.9446 38.6123 12.7184 37.9693 13.1212 37.6231C14.4001 36.5349 15.3823 35.0864 15.8698 33.4825C15.9405 33.2493 16.1525 33.0797 16.3998 33.0797H32.4959C32.5736 33.0797 32.6584 33.0797 32.7361 33.0656C34.6298 32.9525 36.1277 31.4475 36.1277 29.6033V16.8494C36.1277 16.1287 35.8239 15.4433 35.2939 14.9345L26.073 6.10218C25.9246 5.96793 25.7267 5.88314 25.5218 5.88314C25.3169 5.88314 25.1191 5.96793 24.9707 6.10924L15.99 14.7014C15.46 15.2101 15.1632 15.9026 15.1632 16.6162V31.1649C15.1632 31.8149 15.0643 32.465 14.8806 33.0797C14.2517 35.256 12.5913 37.1426 10.4644 38.04C9.74371 38.3579 8.96646 38.5487 8.15389 38.6052C3.77304 38.8808 0.112915 35.5528 0.112915 31.4192V12.2636C0.112915 11.1614 0.572198 10.1015 1.38477 9.32422L8.6485 2.37139C9.82144 1.24792 11.3547 0.491868 13.0082 0.392946C13.1495 0.38588 13.2908 0.378815 13.425 0.378815C15.1703 0.378815 16.8167 1.02888 18.0461 2.21594C18.5337 2.67523 18.5407 3.42421 18.0603 3.89762L15.7568 6.13044C15.2692 6.60386 14.4779 6.59679 13.9974 6.11631L13.9762 6.09511C13.8349 5.96793 13.6299 5.88314 13.425 5.88314C13.2201 5.88314 13.0223 5.96793 12.8598 6.11631L7.7158 11.0412C6.5358 12.1647 5.86454 13.7263 5.86454 15.3232V31.292C5.86454 32.1894 6.52167 32.9525 7.39784 33.0656C7.47556 33.0726 7.55329 33.0797 7.63101 33.0797C8.61317 33.0797 9.41162 32.3166 9.41162 31.3839V14.9416C9.41162 13.8393 9.86383 12.7794 10.6835 11.9951L20.9007 2.21594C22.1373 1.02888 23.7766 0.378815 25.5218 0.378815C27.2671 0.378815 28.9064 1.02888 30.1429 2.21594L40.6004 12.2283C41.4201 13.0126 41.8723 14.0654 41.8723 15.1748Z" fill="#FF574A"/>
</g>
</svg>
