<svg width="74" height="39" viewBox="0 0 74 39" fill="none" xmlns="http://www.w3.org/2000/svg">
<g id="Group">
<g id="Group_2">
<path id="Vector" d="M23.4558 5.08206C19.5351 5.08206 17.0056 7.64767 17.0056 11.6225C17.0056 15.5974 19.4177 18.1901 23.4558 18.1901C27.4939 18.1901 29.915 15.7329 29.915 11.6225C29.915 7.51216 27.3765 5.08206 23.4558 5.08206ZM23.4558 14.7211C21.4593 14.7211 21.3057 12.3543 21.3057 11.6225C21.3057 10.4752 21.5858 8.55105 23.4558 8.55105C25.3258 8.55105 25.6149 10.4752 25.6149 11.6225C25.6149 12.3543 25.4523 14.7211 23.4558 14.7211Z" fill="#002A3D"/>
<path id="Vector_2" d="M15.6617 3.12171V15.8413C15.6617 17.2235 14.6951 18.1901 13.3129 18.1901C11.9307 18.1901 10.9732 17.2235 10.9732 15.8413V11.1528H5.56191V15.8413C5.56191 17.2235 4.60433 18.1901 3.22216 18.1901C1.83998 18.1901 0.873367 17.2235 0.873367 15.8413V3.12171C0.873367 1.73954 1.83998 0.781952 3.22216 0.781952C4.60433 0.781952 5.56191 1.73954 5.56191 3.12171V7.02432H10.9732V3.12171C10.9732 1.73954 11.9307 0.781952 13.3129 0.781952C14.6951 0.781952 15.6617 1.73954 15.6617 3.12171Z" fill="#002A3D"/>
</g>
<path id="Vector_3" d="M49.6648 9.50851V16.04C49.6648 17.4041 48.8879 18.19 47.5238 18.19C46.1597 18.19 45.3737 17.4041 45.3737 16.04V10.3125C45.3737 9.3188 44.9672 8.8129 44.1722 8.8129C43.3231 8.8129 42.4107 9.48141 42.4107 10.7281V16.04C42.4107 17.4041 41.6338 18.19 40.2696 18.19C38.9055 18.19 38.1196 17.4041 38.1196 16.04V10.3125C38.1196 9.3188 37.7131 8.8129 36.9181 8.8129C36.0689 8.8129 35.1565 9.48141 35.1565 10.7281V16.04C35.1565 17.4041 34.3796 18.19 33.0065 18.19C31.6333 18.19 30.8654 17.4041 30.8654 16.04V7.23199C30.8654 5.94918 31.6875 5.08194 32.9252 5.08194C33.8556 5.08194 34.5512 5.5788 34.8403 6.37378C35.7618 5.54266 36.9813 5.08194 38.3183 5.08194C39.3843 5.08194 40.6762 5.50653 41.4711 6.65382C42.4649 5.58783 43.6483 5.08194 45.1389 5.08194C48.0207 5.08194 49.6648 6.68996 49.6648 9.50851Z" fill="#002A3D"/>
<path id="Vector_4" d="M63.5321 10.8636C63.5321 8.0631 61.3098 5.08194 57.2085 5.08194C53.1071 5.08194 50.6228 7.73788 50.6228 11.8392C50.6228 14.7662 52.3754 18.19 57.3169 18.19C59.5573 18.19 62.8727 17.115 62.8727 14.8114C62.8727 13.9622 62.1048 13.0136 61.0117 13.0136C60.2529 13.0136 59.8102 13.4111 59.4127 13.7634C58.943 14.188 58.4913 14.5855 57.3169 14.5855C56.0341 14.5855 55.1759 13.917 54.9681 12.7878H61.5718C62.963 12.7878 63.5321 12.2277 63.5321 10.8636ZM57.2717 8.41541C58.1841 8.41541 58.9339 8.98455 59.2592 9.84276H55.1217C55.5192 8.89421 56.2418 8.41541 57.2717 8.41541Z" fill="#002A3D"/>
<path id="Vector_5" d="M73.0825 7.18682C73.0825 8.49672 72.2514 9.33686 70.9505 9.33686H70.3904C69.8845 9.33686 68.9541 9.33687 68.9541 12.3271V16.04C68.9541 17.4041 68.1681 18.19 66.804 18.19C65.4399 18.19 64.654 17.4041 64.654 16.04V7.12358C64.654 5.92208 65.476 5.08194 66.6504 5.08194C67.5177 5.08194 68.1952 5.54266 68.4843 6.26537C69.0715 5.47943 69.8394 5.08194 70.7789 5.08194C72.0888 5.08194 73.0825 5.98532 73.0825 7.18682Z" fill="#002A3D"/>
<path id="Vector_6" d="M15.6606 23.1587V35.8783C15.6606 37.2604 14.694 38.218 13.3118 38.218C11.9297 38.218 10.9721 37.2604 10.9721 35.8783V31.1897H5.56083V35.8783C5.56083 37.2604 4.60325 38.218 3.22107 38.218C1.8389 38.218 0.872284 37.2604 0.872284 35.8783V23.1587C0.872284 21.7765 1.8389 20.8099 3.22107 20.8099C4.60325 20.8099 5.56083 21.7765 5.56083 23.1587V27.0613H10.9721V23.1587C10.9721 21.7765 11.9297 20.8099 13.3118 20.8099C14.694 20.8099 15.6606 21.7765 15.6606 23.1587Z" fill="#002A3D"/>
<path id="Vector_7" d="M29.4109 27.269V36.077C29.4109 37.423 28.6611 38.218 27.4144 38.218C26.4568 38.218 25.7883 37.7482 25.5354 36.9171C24.5597 37.8024 23.4305 38.218 22.0574 38.218C19.1936 38.218 17.4863 36.4474 17.4863 33.4752V27.269C17.4863 25.9049 18.2722 25.119 19.6363 25.119C21.0004 25.119 21.7863 25.9049 21.7863 27.269V32.8429C21.7863 33.936 22.2742 34.4961 23.2408 34.4961C23.9906 34.4961 25.1108 33.8727 25.1108 32.5357V27.269C25.1108 25.9049 25.8967 25.119 27.2608 25.119C28.6249 25.119 29.4109 25.9049 29.4109 27.269Z" fill="#002A3D"/>
<path id="Vector_8" d="M37.7785 25.119C36.7486 25.119 35.8543 25.3991 35.1406 25.923V22.9599C35.1406 21.6591 34.3005 20.8099 32.9906 20.8099C31.6807 20.8099 30.8405 21.6591 30.8405 22.9599V36.1583C30.8405 37.4682 31.5723 38.218 32.837 38.218C33.7314 38.218 34.3637 37.8296 34.6528 37.143C35.3845 37.8386 36.4325 38.218 37.6882 38.218C40.2538 38.218 43.2439 36.4835 43.2439 31.5962C43.2439 28.3712 41.5546 25.119 37.7785 25.119ZM38.9439 31.7047C38.9439 33.0868 38.4199 34.5864 36.9655 34.6226C35.1587 34.6226 34.969 32.5809 34.969 31.7047C34.969 30.5935 35.2581 29.663 35.7549 29.1662C36.0621 28.868 36.4505 28.7145 36.9384 28.7145H36.9655C38.7541 28.7145 38.9439 30.8013 38.9439 31.7047Z" fill="#002A3D"/>
</g>
</svg>
