<svg width="14" height="15" viewBox="0 0 14 15" fill="none" xmlns="http://www.w3.org/2000/svg">
<path id="Vector" d="M9.9499 9.4688C10.7636 8.3585 11.128 6.98192 10.9703 5.61447C10.8126 4.24701 10.1444 2.98953 9.09932 2.09359C8.05428 1.19766 6.70949 0.729343 5.33399 0.782343C3.95849 0.835344 2.65373 1.40575 1.68073 2.37944C0.70773 3.35314 0.138257 4.65831 0.0862409 6.03385C0.0342248 7.40939 0.503501 8.75384 1.40018 9.79824C2.29687 10.8426 3.55483 11.5099 4.9224 11.6667C6.28997 11.8234 7.66628 11.458 8.776 10.6435H8.77516C8.80037 10.6772 8.82726 10.7091 8.85751 10.7402L12.0927 13.9753C12.2502 14.133 12.464 14.2216 12.6869 14.2217C12.9098 14.2218 13.1236 14.1333 13.2813 13.9758C13.4389 13.8182 13.5276 13.6044 13.5276 13.3815C13.5277 13.1586 13.4393 12.9448 13.2817 12.7871L10.0465 9.55199C10.0165 9.52158 9.98419 9.49433 9.9499 9.4688ZM10.1667 6.23869C10.1667 6.84561 10.0472 7.44659 9.81489 8.00732C9.58263 8.56804 9.24221 9.07753 8.81305 9.50669C8.38389 9.93585 7.8744 10.2763 7.31367 10.5085C6.75295 10.7408 6.15197 10.8603 5.54504 10.8603C4.93812 10.8603 4.33714 10.7408 3.77641 10.5085C3.21569 10.2763 2.7062 9.93585 2.27704 9.50669C1.84788 9.07753 1.50745 8.56804 1.27519 8.00732C1.04293 7.44659 0.923391 6.84561 0.923391 6.23869C0.923391 5.01295 1.41031 3.83741 2.27704 2.97068C3.14377 2.10396 4.31931 1.61703 5.54504 1.61703C6.77078 1.61703 7.94632 2.10396 8.81305 2.97068C9.67977 3.83741 10.1667 5.01295 10.1667 6.23869Z" fill="#717171"/>
</svg>
