<svg width="21" height="21" viewBox="0 0 21 21" fill="none" xmlns="http://www.w3.org/2000/svg">
<g clip-path="url(#clip0_1_536)">
<path d="M4.8468 12.7731L4.61614 12.5623L4.8468 12.7731C5.52 12.0366 6.43492 11.6211 7.39084 11.6211H14.3908C15.3468 11.6211 16.2617 12.0366 16.9349 12.7731L17.1656 12.5623L16.9349 12.7731C17.6079 13.5093 17.9846 14.5061 17.9846 15.5439V18.7148C17.9846 18.7666 17.9426 18.8086 17.8908 18.8086C17.8391 18.8086 17.7971 18.7666 17.7971 18.7148V15.5439C17.7971 14.5506 17.4364 13.5996 16.7966 12.8996L16.5659 13.1105L16.7966 12.8996C16.1569 12.1998 15.2913 11.8086 14.3908 11.8086H7.39084C6.49038 11.8086 5.6248 12.1998 4.98519 12.8996C4.34537 13.5996 3.98462 14.5506 3.98462 15.5439V18.7148C3.98462 18.7666 3.94265 18.8086 3.89087 18.8086C3.83909 18.8086 3.79712 18.7666 3.79712 18.7148V15.5439C3.79712 14.5061 4.17389 13.5093 4.8468 12.7731ZM10.8908 2.39258C9.00963 2.39258 7.48459 3.91761 7.48459 5.79883C7.48459 7.68005 9.00963 9.20508 10.8908 9.20508C12.7721 9.20508 14.2971 7.68005 14.2971 5.79883C14.2971 3.91761 12.7721 2.39258 10.8908 2.39258ZM7.29712 5.79883C7.29712 3.81405 8.90612 2.20508 10.8908 2.20508C12.8756 2.20508 14.4846 3.81405 14.4846 5.79883C14.4846 7.78362 12.8756 9.39258 10.8908 9.39258C8.90612 9.39258 7.29712 7.78362 7.29712 5.79883Z" fill="#16283A" stroke="black" stroke-width="0.625"/>
</g>
<defs>
<clipPath id="clip0_1_536">
<rect width="20" height="20" fill="white" transform="translate(0.890869 0.5)"/>
</clipPath>
</defs>
</svg>
